<?xml version="1.0" standalone="no"?>
<!DOCTYPE svg PUBLIC "-//W3C//DTD SVG 20010904//EN"
 "http://www.w3.org/TR/2001/REC-SVG-20010904/DTD/svg10.dtd">
<svg version="1.0" xmlns="http://www.w3.org/2000/svg"
 width="1280.000000pt" height="640.000000pt" viewBox="0 0 1280.000000 640.000000"
 preserveAspectRatio="xMidYMid meet">
<g transform="translate(0.000000,640.000000) scale(0.100000,-0.100000)"
fill="#000000" stroke="none">
<path d="M2111 6185 c-12 -6 -65 -76 -118 -155 -54 -80 -122 -174 -150 -210
-48 -59 -53 -69 -53 -115 0 -51 -12 -75 -37 -75 -8 0 -13 12 -13 30 0 26 -2
29 -22 21 -13 -4 -52 -11 -88 -15 -36 -3 -89 -15 -118 -26 -29 -11 -63 -20
-76 -20 -40 0 -139 -39 -171 -68 -16 -15 -56 -45 -89 -67 -32 -21 -65 -50 -75
-64 -9 -14 -43 -50 -75 -81 -33 -30 -79 -74 -103 -98 -43 -42 -100 -73 -213
-115 -53 -19 -105 -28 -275 -46 -44 -5 -113 -14 -153 -21 -55 -9 -79 -10 -95
-1 -12 6 -44 15 -71 21 -57 12 -78 0 -96 -55 -10 -30 -8 -38 22 -80 18 -26 50
-65 70 -86 22 -23 38 -50 38 -63 0 -13 17 -46 38 -73 167 -221 206 -248 383
-258 100 -6 121 -4 173 14 65 23 111 27 121 10 9 -13 -23 -49 -43 -49 -8 0
-40 -15 -71 -34 -31 -18 -69 -36 -86 -39 -16 -3 -56 -18 -89 -33 -56 -25 -58
-28 -52 -58 7 -31 77 -112 107 -121 9 -3 117 4 240 15 l224 21 81 40 c62 30
89 38 110 34 67 -15 104 -39 153 -101 l51 -63 15 -116 c8 -63 22 -145 29 -183
8 -37 17 -95 21 -129 7 -63 18 -80 28 -43 3 11 10 20 16 20 12 0 25 -47 41
-150 15 -93 29 -140 41 -140 5 0 18 20 29 45 19 44 36 57 45 33 3 -7 11 -47
19 -88 8 -41 29 -115 46 -164 67 -194 110 -258 110 -163 0 53 28 139 44 134 6
-2 34 -46 61 -98 66 -124 139 -214 174 -214 20 0 30 -9 46 -41 11 -23 43 -69
70 -103 42 -51 55 -61 81 -61 27 0 39 -9 80 -64 62 -81 184 -158 184 -116 0
25 41 4 154 -77 67 -47 131 -87 144 -89 12 -1 45 -17 73 -34 27 -18 51 -31 53
-29 2 2 9 14 15 26 16 31 31 29 69 -10 21 -22 32 -43 32 -63 0 -21 14 -45 47
-83 76 -87 340 -487 400 -605 30 -60 70 -131 89 -158 19 -28 34 -54 34 -59 0
-32 155 -229 180 -229 10 0 40 -16 66 -36 52 -40 122 -74 202 -97 47 -15 54
-14 101 4 76 28 100 25 174 -26 37 -25 72 -45 79 -45 7 0 35 -16 62 -35 27
-19 55 -35 61 -35 17 0 178 -114 273 -192 87 -73 189 -209 223 -297 11 -31 27
-51 52 -65 32 -19 40 -19 81 -8 26 6 70 12 99 12 57 0 72 10 112 73 15 23 16
32 5 57 -11 26 -10 33 2 48 9 9 21 33 28 54 12 32 11 40 -5 65 -11 15 -22 53
-26 83 -11 74 -66 152 -148 206 -83 55 -87 60 -71 79 10 11 34 15 106 15 90 0
95 1 128 30 42 38 96 117 96 142 0 30 -66 151 -100 183 -29 28 -36 30 -88 26
-31 -2 -109 -5 -172 -5 -90 -1 -115 2 -115 12 0 8 63 39 155 76 85 35 169 70
187 79 18 9 43 17 57 17 14 0 40 7 58 15 18 8 125 44 238 80 113 36 212 71
221 78 8 6 34 36 57 65 36 46 42 60 42 102 0 27 4 52 10 55 5 3 51 -14 101
-39 128 -64 202 -61 258 11 19 24 22 38 20 132 -1 136 24 207 109 300 52 57
59 62 83 53 31 -12 48 -4 116 59 28 27 59 49 68 49 8 0 49 31 91 70 84 78 110
95 119 80 3 -5 12 -10 19 -10 18 0 182 243 240 355 26 50 62 119 81 155 19 36
35 77 35 91 0 14 13 43 30 64 16 21 35 56 41 79 28 112 46 139 78 119 9 -6 44
-16 77 -23 53 -11 230 -99 387 -192 26 -15 51 -28 55 -28 16 0 71 -67 140
-171 115 -173 219 -269 290 -269 14 0 40 -22 73 -62 73 -88 126 -132 181 -151
45 -15 48 -15 72 4 13 10 29 19 34 19 6 0 33 -27 61 -59 29 -33 73 -73 98 -90
41 -27 55 -31 116 -31 69 0 69 0 125 -51 77 -68 256 -159 315 -159 35 0 54 -8
98 -41 72 -54 203 -125 259 -139 80 -21 240 -96 434 -204 104 -57 195 -102
202 -99 8 3 14 14 14 24 0 30 27 89 41 89 7 0 46 -22 88 -48 202 -129 258
-147 286 -92 27 52 48 42 193 -82 91 -78 119 -91 142 -63 20 24 39 18 92 -27
27 -22 93 -65 146 -95 96 -54 98 -54 162 -48 136 12 230 -32 311 -147 22 -32
45 -56 50 -53 5 4 9 37 9 74 0 76 9 91 57 91 43 0 93 -21 152 -64 67 -49 88
-53 103 -21 13 29 22 31 131 40 56 5 77 10 77 21 0 8 -28 51 -61 96 -34 46
-65 94 -70 107 -11 28 4 51 33 51 11 0 45 7 75 16 l56 16 -44 43 c-32 32 -105
75 -274 160 -177 90 -256 137 -345 204 -63 47 -158 112 -211 144 -63 38 -112
77 -143 112 -72 84 -156 144 -231 164 -73 21 -125 56 -164 112 -18 26 -36 40
-59 45 -18 3 -85 40 -150 81 -64 42 -191 113 -282 158 l-165 83 -163 166
c-121 124 -177 174 -220 195 -31 17 -70 41 -87 54 l-30 25 19 56 c18 53 18 57
2 75 -10 11 -45 29 -77 40 -33 11 -74 32 -90 46 -36 29 -172 111 -261 156 -72
36 -181 59 -286 59 -75 0 -147 12 -160 25 -4 4 8 19 26 33 42 35 41 50 -5 57
-21 4 -54 12 -73 19 -19 8 -57 16 -85 20 -44 6 -100 23 -245 76 -19 7 -87 19
-150 27 -63 8 -160 27 -215 43 -55 16 -129 32 -165 36 -46 4 -79 15 -115 37
-49 29 -52 30 -114 19 -36 -6 -72 -7 -80 -2 -9 4 -61 11 -116 15 -63 5 -116
14 -142 26 -23 11 -62 19 -86 19 -39 0 -49 5 -81 40 -20 22 -36 49 -36 59 0
10 -30 48 -67 82 -37 35 -117 111 -178 169 -149 143 -287 231 -423 269 -104
30 -156 58 -192 104 -14 17 -31 27 -48 27 -15 0 -69 9 -120 19 -82 17 -99 25
-136 59 -46 43 -124 69 -154 53 -11 -6 -24 -6 -35 0 -9 6 -21 8 -26 5 -4 -3
-22 -1 -40 4 -17 5 -64 10 -104 11 -39 1 -129 8 -200 16 -75 8 -201 12 -305
11 -152 -3 -185 0 -235 16 -56 18 -62 18 -152 2 -51 -9 -143 -19 -204 -23
-101 -5 -113 -4 -125 12 -13 18 -17 17 -107 -13 -113 -37 -195 -71 -229 -95
-13 -9 -32 -17 -41 -17 -9 0 -28 -9 -42 -20 -32 -25 -106 -52 -124 -46 -10 4
-11 17 -7 46 6 39 6 40 -24 40 -35 0 -232 -77 -308 -120 -53 -31 -88 -38 -99
-20 -9 14 -51 3 -105 -28 -172 -96 -244 -128 -320 -142 -25 -5 -72 -15 -105
-23 -50 -11 -77 -11 -148 -2 -84 11 -92 15 -185 78 -112 77 -150 122 -240 284
l-63 113 26 50 c48 94 72 219 82 410 12 261 10 298 -15 347 -20 38 -28 44 -80
58 -31 9 -63 18 -70 21 -17 5 -68 -21 -75 -39 -6 -17 -196 -246 -219 -265 -23
-18 -35 2 -46 78 -15 96 -100 307 -133 331 -35 24 -140 40 -168 24z m3286
-3381 c7 -48 35 -137 69 -227 41 -106 54 -151 46 -159 -7 -7 -43 -3 -124 17
-110 26 -218 41 -384 52 -68 4 -93 1 -163 -21 -46 -14 -115 -44 -153 -66 -38
-23 -76 -39 -84 -36 -35 13 -2 146 37 146 9 0 37 27 63 60 40 52 49 59 66 50
31 -17 48 -12 90 26 22 20 41 32 41 28 1 -5 2 -25 3 -44 1 -28 5 -36 23 -38
24 -4 67 37 89 83 31 68 58 82 74 40 14 -37 47 -32 92 16 28 30 45 40 60 36
32 -9 46 1 84 65 20 32 41 57 48 55 6 -2 16 -39 23 -83z m-714 -720 l38 -26
125 28 c142 32 148 31 365 -32 65 -19 128 -34 139 -34 32 0 203 -51 218 -64
10 -10 6 -18 -25 -38 -72 -47 -292 -136 -466 -188 -131 -40 -192 -64 -255
-101 -46 -27 -90 -49 -98 -49 -36 0 -68 133 -95 387 -11 108 -9 143 8 143 5 0
25 -12 46 -26z"/>
</g>
</svg>
